<?xml version="1.0" encoding="UTF-8"?>
<!DOCTYPE svg PUBLIC "-//W3C//DTD SVG 1.1//EN" "http://www.w3.org/Graphics/SVG/1.1/DTD/svg11.dtd">
<svg version="1.1" xmlns="http://www.w3.org/2000/svg" xmlns:xlink="http://www.w3.org/1999/xlink" x="0" y="0" width="392.527" height="454.669" viewBox="0, 0, 392.527, 454.669">
  <g id="Layer_1" transform="translate(0.285, -88.603)">
    <path d="M197.19,88.603 L392.155,202.124 L392.183,202.141 L392.183,382.913 L392.242,382.879 L392.242,429.237 L392.183,429.27 L392.183,430.01 L391.542,429.64 L194.813,543.222 L194.812,543.272 L194.769,543.247 L194.766,543.249 L194.766,543.246 L116.832,498.251 L116.832,498.255 L76.686,475.076 L76.686,475.072 L76.661,475.058 L76.686,475.044 L76.686,247.154 L76.686,247.154 L195.083,178.737 L195.083,178.806 L312.206,247.002 L312.206,384.209 L312.165,384.195 L194.744,451.988 L194.744,452.004 L194.73,451.996 L194.713,452.006 L194.713,451.986 L154.597,428.825 L154.666,292.396 L154.666,292.396 L194.858,269.171 L234.944,292.375 L194.744,315.617 L194.767,405.617 L272.06,360.993 L272.06,269.646 L195.068,225.154 L195.068,225.103 L116.832,270.386 L116.832,451.893 L194.898,496.965 L352.037,406.122 L352.037,224.323 L351.931,224.381 L197.19,134.96 L197.19,134.96 L39.847,225.802 L39.893,225.829 L39.893,453.801 L-0.253,430.622 L-0.253,248.954 L-0.285,248.973 L-0.253,216.876 L-0.253,202.597 L-0.239,202.605 L-0.239,202.589 L197.19,88.603 L197.19,88.603 z" fill="#38C400"/>
  </g>
</svg>
